<?xml version="1.0" encoding="UTF-8"?>
<svg version="1.1" xmlns="http://www.w3.org/2000/svg" width="140" height="140">
<path d="M0 0 C0.69495575 -0.0087616 1.3899115 -0.01752319 2.10592651 -0.02655029 C4.39287587 -0.04847679 6.67787631 -0.03401834 8.96484375 -0.01708984 C10.55998097 -0.02045999 12.15511569 -0.02531426 13.75024414 -0.03158569 C17.08927927 -0.03894778 20.42764447 -0.02827386 23.76660156 -0.00488281 C28.04089175 0.02360567 32.31361222 0.00719798 36.58784485 -0.02274513 C39.88053151 -0.04083674 43.17284766 -0.03505179 46.46554565 -0.02210617 C48.04117012 -0.01877725 49.61682852 -0.02284121 51.19241333 -0.03450394 C53.39740729 -0.0472448 55.59988075 -0.02779692 57.8046875 0 C59.68401978 0.00596695 59.68401978 0.00596695 61.60131836 0.01205444 C65.80671209 0.82091859 67.24873389 2.3537274 69.90234375 5.64697266 C71.05241502 8.14272953 71.98327664 10.44100711 72.83203125 13.02978516 C73.07148468 13.72586884 73.31093811 14.42195251 73.55764771 15.13912964 C74.05686569 16.60078397 74.54894775 18.0648933 75.03417969 19.53125 C75.77941769 21.77822582 76.54992879 24.01533149 77.32421875 26.25244141 C77.80749924 27.67771165 78.28932219 29.10347714 78.76953125 30.52978516 C78.99961884 31.19857697 79.22970642 31.86736877 79.46676636 32.556427 C81.01803265 37.29990595 81.01803265 37.29990595 79.90234375 40.64697266 C79.38285156 40.17646484 78.86335938 39.70595703 78.328125 39.22119141 C77.63074219 38.59857422 76.93335937 37.97595703 76.21484375 37.33447266 C75.18810547 36.41214844 75.18810547 36.41214844 74.140625 35.47119141 C71.97642702 33.55004744 71.97642702 33.55004744 69.33984375 32.47900391 C65.59559023 29.66481336 64.89388387 26.0235928 63.58984375 21.64697266 C63.32623047 20.82712891 63.06261719 20.00728516 62.79101562 19.16259766 C61.74607913 15.84051383 60.90234375 13.15199194 60.90234375 9.64697266 C39.78234375 9.64697266 18.66234375 9.64697266 -3.09765625 9.64697266 C-3.75765625 12.61697266 -4.41765625 15.58697266 -5.09765625 18.64697266 C-7.07765625 24.25697266 -9.05765625 29.86697266 -11.09765625 35.64697266 C2.43234375 35.64697266 15.96234375 35.64697266 29.90234375 35.64697266 C27.92234375 37.95697266 25.94234375 40.26697266 23.90234375 42.64697266 C22.94330577 43.97146928 22.01397963 45.31964218 21.15234375 46.70947266 C20.765625 47.31919922 20.37890625 47.92892578 19.98046875 48.55712891 C17.18602606 53.97389282 16.58762766 58.93548315 16.65234375 64.95947266 C16.64460938 65.6678125 16.636875 66.37615234 16.62890625 67.10595703 C16.64934902 72.74305073 17.62810605 76.91290301 18.90234375 82.64697266 C10.65234375 82.64697266 2.40234375 82.64697266 -6.09765625 82.64697266 C-6.09765625 85.61697266 -6.09765625 88.58697266 -6.09765625 91.64697266 C-9.47557384 95.02489025 -10.01226074 95.07833576 -14.53515625 95.08447266 C-15.48261719 95.10380859 -16.43007813 95.12314453 -17.40625 95.14306641 C-21.03457663 94.47427471 -21.92375763 93.6494393 -24.09765625 90.64697266 C-24.79759135 87.2955263 -24.84799379 83.96512294 -24.91015625 80.54931641 C-24.93753372 79.5388324 -24.96491119 78.52834839 -24.99311829 77.48724365 C-25.06195268 74.18577525 -25.08661327 70.8866201 -25.09765625 67.58447266 C-25.10534027 66.46537506 -25.11302429 65.34627747 -25.12094116 64.19326782 C-25.14262953 48.76482916 -23.73838038 34.86142709 -18.41015625 20.33447266 C-18.14485107 19.60694794 -17.8795459 18.87942322 -17.60620117 18.12985229 C-10.82469802 0.03436882 -10.82469802 0.03436882 0 0 Z M-10.09765625 50.64697266 C-11.66701219 53.78568453 -11.44966728 56.18553087 -11.09765625 59.64697266 C-9.20116074 62.79355932 -9.20116074 62.79355932 -6.09765625 64.64697266 C-2.1393498 64.71641663 0.04742191 64.21692055 3.33984375 62.02197266 C5.57986187 58.61714512 5.60288778 56.64007365 4.90234375 52.64697266 C3.08724991 50.30491609 1.48427567 49.28550638 -1.09765625 47.64697266 C-5.39152636 47.64697266 -6.68632109 48.24981822 -10.09765625 50.64697266 Z " fill="#089AE3" transform="translate(41.09765625,28.35302734375)"/>
<path d="M0 0 C7.11794692 5.39699594 10.65625887 11.39213919 11.875 20.25 C12.25995574 24.65894623 11.56054887 27.38164802 9.875 31.4375 C8.84488869 34.13335661 8.84488869 34.13335661 9 37 C11.68345124 41.12643917 14.87436332 44.34742344 18.5078125 47.63964844 C20.75002094 49.683756 22.86664456 51.84311491 25 54 C23.44499019 57.81684226 20.96404505 60.19195732 18 63 C14.993182 61.66000502 13.00237391 60.20154709 10.75 57.8125 C10.1415625 57.20277344 9.533125 56.59304687 8.90625 55.96484375 C7.61899415 54.63802061 6.36903683 53.274125 5.15625 51.87890625 C3.17286667 49.79391517 1.58016711 48.28781627 -1 47 C-3.93354364 47.303624 -6.36015083 48.14209358 -9.1328125 49.13671875 C-15.20235493 50.96419679 -21.51550039 49.92734954 -27.25 47.375 C-34.69071244 43.0904914 -38.7649514 37.88424553 -41.33984375 29.69140625 C-43.27220757 21.81330758 -41.7050944 15.21076446 -38 8 C-28.77732562 -4.99854578 -13.56100123 -7.03674046 0 0 Z M-28 16 C-29.24115911 19.72347734 -29.5420862 23.13214172 -29 27 C-26.46579412 31.6314797 -24.06902315 35.31032562 -19 37 C-14.33492377 37.3823833 -11.95872359 37.47936179 -7.75 35.375 C-4.2831491 32.3809015 -1.52761799 29.69192851 -0.6171875 25.046875 C-0.27343653 19.04269133 -2.69860201 15.66962167 -6.5625 11.1875 C-9.60505495 8.67408504 -13.12798065 8.66892074 -16.9375 8.7109375 C-21.40348133 9.33685155 -25.18516869 12.59257262 -28 16 Z " fill="#099AE3" transform="translate(109,71)"/>
</svg>
