<?xml version="1.0" encoding="UTF-8"?>
<svg version="1.1" xmlns="http://www.w3.org/2000/svg" width="140" height="140">
<path d="M0 0 C2.76495945 1.09396928 3.57940495 2.46608329 5.20776367 4.93579102 C5.76786133 5.77174805 6.32795898 6.60770508 6.9050293 7.46899414 C7.47801758 8.3487793 8.05100586 9.22856445 8.64135742 10.13500977 C9.78793496 11.86064099 10.93505192 13.58591395 12.08276367 15.31079102 C12.58622314 16.0794751 13.08968262 16.84815918 13.60839844 17.64013672 C15.0340201 19.75596471 16.53009648 21.79561173 18.07885742 23.82250977 C22.54521454 23.16889653 26.74945796 22.08889772 31.07885742 20.82250977 C32.64944236 25.19933809 34.21591588 29.57760728 35.77856445 33.95727539 C36.31095886 35.44758992 36.84448297 36.93750138 37.37915039 38.42700195 C38.14659841 40.56560479 38.90999824 42.70561494 39.67260742 44.84594727 C39.91321899 45.51371185 40.15383057 46.18147644 40.4017334 46.86947632 C42.07885742 51.59476635 42.07885742 51.59476635 42.07885742 53.82250977 C44.05885742 53.82250977 46.03885742 53.82250977 48.07885742 53.82250977 C48.07885742 77.25250977 48.07885742 100.68250977 48.07885742 124.82250977 C7.15885742 124.82250977 -33.76114258 124.82250977 -75.92114258 124.82250977 C-75.92114258 101.39250977 -75.92114258 77.96250977 -75.92114258 53.82250977 C-73.28114258 53.49250977 -70.64114258 53.16250977 -67.92114258 52.82250977 C-65.59151966 51.2481262 -63.79974103 49.84987717 -61.79614258 47.94750977 C-60.66674051 46.93473703 -59.53515839 45.92439107 -58.40161133 44.91625977 C-57.82717285 44.3993457 -57.25273438 43.88243164 -56.66088867 43.34985352 C-53.9030736 40.92873492 -51.01193019 38.69024797 -48.10864258 36.44750977 C-42.99322379 32.46885071 -37.94081536 28.42128562 -32.92114258 24.32250977 C-26.68838679 19.23761607 -20.4086013 14.2202489 -14.05786133 9.28344727 C-12.08070402 7.73225286 -10.12192157 6.15706395 -8.19067383 4.54907227 C-7.00538086 3.57067383 -7.00538086 3.57067383 -5.79614258 2.57250977 C-5.13356445 2.01047852 -4.47098633 1.44844727 -3.78833008 0.86938477 C-1.92114258 -0.17749023 -1.92114258 -0.17749023 0 0 Z M-3.92114258 17.82250977 C-5.6014678 18.71633004 -5.6014678 18.71633004 -7.22192383 20.18188477 C-8.18388672 20.98299683 -8.18388672 20.98299683 -9.1652832 21.80029297 C-9.8478418 22.38512451 -10.53040039 22.96995605 -11.23364258 23.57250977 C-12.66633543 24.77020284 -14.0999483 25.96679613 -15.53442383 27.16235352 C-16.62424561 28.07670166 -16.62424561 28.07670166 -17.73608398 29.00952148 C-21.07980371 31.78387486 -24.49545956 34.46300379 -27.92114258 37.13500977 C-28.52611572 37.60841797 -29.13108887 38.08182617 -29.75439453 38.56958008 C-31.14229979 39.65518343 -32.53155255 40.73906379 -33.92114258 41.82250977 C-31.7022443 43.21490558 -31.7022443 43.21490558 -28.20581055 41.74267578 C-26.60565068 41.19498506 -25.00832768 40.63896326 -23.41333008 40.07641602 C-22.57271027 39.78645248 -21.73209045 39.49648895 -20.86599731 39.19773865 C-18.17355149 38.26718818 -15.48487363 37.32623341 -12.79614258 36.38500977 C-10.97476606 35.75346339 -9.15315427 35.12259509 -7.33129883 34.49243164 C-2.85847569 32.94365498 1.61099482 31.38553586 6.07885742 29.82250977 C4.9851588 28.00367398 3.8785435 26.19259998 2.76635742 24.38500977 C2.15147461 23.37567383 1.5365918 22.36633789 0.90307617 21.32641602 C-0.74166223 18.55980374 -0.74166223 18.55980374 -3.92114258 17.82250977 Z M17.65087891 38.29125977 C16.7099791 38.6115918 15.76907928 38.93192383 14.79966736 39.26196289 C13.77676102 39.61194336 12.75385468 39.96192383 11.69995117 40.32250977 C10.13725243 40.85521484 10.13725243 40.85521484 8.54298401 41.39868164 C5.20028738 42.5385336 1.85831733 43.68049981 -1.48364258 44.82250977 C-3.74336083 45.59348197 -6.00312583 46.36431715 -8.26293945 47.13500977 C-13.81621831 49.02925059 -19.36890133 50.92522989 -24.92114258 52.82250977 C-24.92114258 53.15250977 -24.92114258 53.48250977 -24.92114258 53.82250977 C-7.43114258 53.82250977 10.05885742 53.82250977 28.07885742 53.82250977 C26.62010653 46.8262589 26.62010653 46.8262589 24.45385742 40.26000977 C24.00010742 39.12563477 23.54635742 37.99125977 23.07885742 36.82250977 C21.19972319 36.82250977 19.40994958 37.69083031 17.65087891 38.29125977 Z M-52.92114258 65.82250977 C-54.24114258 68.13250977 -55.56114258 70.44250977 -56.92114258 72.82250977 C-57.97817383 73.36907227 -59.03520508 73.91563477 -60.12426758 74.47875977 C-63.12663856 76.51213048 -63.12663856 76.51213048 -63.49731445 79.40454102 C-63.7313414 82.7306231 -63.73893983 85.98914469 -63.67114258 89.32250977 C-63.6943457 90.46333008 -63.71754883 91.60415039 -63.74145508 92.77954102 C-63.71931698 95.91946067 -63.60416466 98.75701403 -62.92114258 101.82250977 C-60.22278437 104.34372295 -60.22278437 104.34372295 -56.92114258 105.82250977 C-56.35081299 106.82936829 -55.7804834 107.83622681 -55.19287109 108.87359619 C-53.17075573 112.14943549 -53.17075573 112.14943549 -49.50585938 112.58441162 C-48.12780981 112.61995181 -46.74866672 112.62249799 -45.37036133 112.59887695 C-44.61542389 112.60939087 -43.86048645 112.61990479 -43.08267212 112.6307373 C-40.59048365 112.6571177 -38.10085634 112.63967636 -35.60864258 112.61938477 C-33.87515778 112.62342702 -32.14167629 112.62925054 -30.40820312 112.63677979 C-26.77644445 112.64562351 -23.14557164 112.63277663 -19.51391602 112.60473633 C-14.85930376 112.57054865 -10.20676693 112.59023307 -5.55223083 112.62617111 C-1.97302623 112.64785667 1.60568655 112.6409505 5.18490601 112.62540436 C6.90091192 112.62140287 8.61696255 112.62631039 10.33291626 112.64028168 C12.73250491 112.65553163 15.12873756 112.63229223 17.52807617 112.59887695 C18.59111465 112.61709503 18.59111465 112.61709503 19.67562866 112.63568115 C21.92310367 112.64154008 21.92310367 112.64154008 25.07885742 111.82250977 C27.40181745 108.95072881 27.40181745 108.95072881 29.07885742 105.82250977 C30.13459961 105.2952832 31.1903418 104.76805664 32.27807617 104.22485352 C35.66215254 101.32219387 35.57893381 100.45027273 35.91088867 96.13891602 C35.93612303 93.88774595 35.92838476 91.63601675 35.89135742 89.38500977 C35.92293945 88.25256836 35.95452148 87.12012695 35.98706055 85.95336914 C36.15966904 80.09644481 36.15966904 80.09644481 33.56860352 75.13452148 C31.76910716 73.88155389 31.76910716 73.88155389 29.87451172 73.06054688 C28.07885742 71.82250977 28.07885742 71.82250977 25.07885742 65.82250977 C-0.66114258 65.82250977 -26.40114258 65.82250977 -52.92114258 65.82250977 Z " fill="#089AE3" transform="translate(83.921142578125,4.177490234375)"/>
<path d="M0 0 C3.88021523 4.19313581 5.85324753 9.20258853 6.1328125 14.89453125 C5.23578089 22.96781578 3.02656624 27.17029887 -3.26953125 32.38671875 C-8.81931842 36.32802634 -13.60273174 36.56636482 -20.3046875 35.83203125 C-26.53542749 34.05334137 -30.76142065 30.158587 -34.3046875 24.83203125 C-36.86313269 19.36626199 -37.32519584 14.03226614 -35.5 8.30859375 C-32.60433039 1.65853871 -28.81328356 -2.01827316 -22.3046875 -5.16796875 C-14.57653004 -7.79883087 -6.09970803 -5.0748583 0 0 Z M-23.3046875 11.83203125 C-23.94133702 15.86414489 -24.00286981 17.84940429 -21.6171875 21.20703125 C-18.99272333 23.05124932 -17.51538803 23.75372148 -14.3046875 23.83203125 C-11.46755186 22.44645338 -9.53467046 21.06201421 -7.3046875 18.83203125 C-6.72613014 14.45152555 -6.8087314 12.51761763 -9.4296875 8.89453125 C-12.14235934 6.65459459 -12.14235934 6.65459459 -15.3046875 6.20703125 C-19.41172191 7.06266342 -20.85869863 8.45081134 -23.3046875 11.83203125 Z " fill="#099AE3" transform="translate(85.3046875,78.16796875)"/>
</svg>
