<?xml version="1.0" encoding="UTF-8"?>
<svg version="1.1" xmlns="http://www.w3.org/2000/svg" width="140" height="140">
<path d="M0 0 C9.18651502 0 14.411915 0.23865659 22.4375 3.39453125 C23.36546387 3.74255295 24.29342773 4.09057465 25.24951172 4.44914246 C27.1888867 5.18058882 29.12476857 5.92136085 31.05712891 6.67114258 C34.01368187 7.81780635 36.97995719 8.93553851 39.94921875 10.04882812 C41.84176945 10.76658698 43.73371955 11.48593194 45.625 12.20703125 C46.50728271 12.54152786 47.38956543 12.87602448 48.29858398 13.22065735 C49.12044189 13.54076279 49.9422998 13.86086823 50.7890625 14.19067383 C51.50787598 14.46825027 52.22668945 14.74582672 52.96728516 15.03181458 C55.24729123 16.11778522 57.07964072 17.36187002 59 19 C59.49609375 20.9375 59.49609375 20.9375 59.4375 23 C59.43621094 23.680625 59.43492188 24.36125 59.43359375 25.0625 C58.86481869 27.60405343 58.04429406 28.39952377 56 30 C53.65917969 30.37231445 53.65917969 30.37231445 50.921875 30.36328125 C49.92542969 30.36263672 48.92898437 30.36199219 47.90234375 30.36132812 C46.86207031 30.34521484 45.82179687 30.32910156 44.75 30.3125 C43.72519531 30.31572266 42.70039062 30.31894531 41.64453125 30.32226562 C36.04997724 30.28266453 31.2814592 29.87238172 26 28 C26 28.99 26 29.98 26 31 C32.26674159 33.74621775 37.35870183 34.42910243 44.16015625 34.40625 C45.10886093 34.41708618 46.05756561 34.42792236 47.03501892 34.43908691 C51.06081498 34.48463673 55.08654151 34.49640646 59.11254883 34.51123047 C62.06614705 34.5269779 65.01921781 34.55998153 67.97265625 34.59375 C69.32448753 34.58921814 69.32448753 34.58921814 70.70362854 34.58459473 C76.89896375 34.65789718 82.21822191 35.31094785 86.875 39.8125 C88.25866238 42.50295462 88.55331928 45.02348212 89 48 C84.35975255 49.77935746 79.7190266 51.55745955 75.07788086 53.33447266 C73.50386019 53.93733013 71.92996368 54.54051189 70.35620117 55.14404297 C69.59605713 55.43553223 68.83591309 55.72702148 68.05273438 56.02734375 C67.29969025 56.31613403 66.54664612 56.60492432 65.77078247 56.90246582 C63.53596859 57.75635945 61.29816746 58.60205299 59.06005859 59.44726562 C56.6046817 60.37683116 54.18147607 61.34056904 51.75634766 62.34960938 C50.37068604 62.91131836 50.37068604 62.91131836 48.95703125 63.484375 C47.82164917 63.96729004 47.82164917 63.96729004 46.66333008 64.45996094 C39.89197984 65.8329765 32.9486583 63.64081307 26.46484375 61.71484375 C25.78587036 61.5192688 25.10689697 61.32369385 24.40734863 61.12219238 C21.91506215 60.40200012 19.42647957 59.66903916 16.9375 58.9375 C11.348125 57.308125 5.75875 55.67875 0 54 C0 36.18 0 18.36 0 0 Z " fill="#089AE3" transform="translate(46,40)"/>
<path d="M0 0 C7.92 0 15.84 0 24 0 C24 21.45 24 42.9 24 65 C16.08 65 8.16 65 0 65 C0 43.55 0 22.1 0 0 Z " fill="#089AE3" transform="translate(11,40)"/>
</svg>
