<?xml version="1.0" encoding="UTF-8"?>
<svg version="1.1" xmlns="http://www.w3.org/2000/svg" width="140" height="140">
<path d="M0 0 C10.6143264 8.22982874 16.70082557 16.96723887 19.6875 30 C21.05032034 43.08307525 18.29749647 54.95898177 10.109375 65.4140625 C1.63209646 75.34736217 1.63209646 75.34736217 -4.21290588 76.39762878 C-6.85337796 76.57775007 -9.46662907 76.63295887 -12.11328125 76.63671875 C-13.08226852 76.64766068 -14.0512558 76.6586026 -15.04960632 76.6698761 C-17.09445901 76.68570136 -19.13941758 76.69094914 -21.18432617 76.6862793 C-24.29332029 76.68749252 -27.39758751 76.74725349 -30.50585938 76.81054688 C-47.11515313 76.95878354 -47.11515313 76.95878354 -52.6796875 72.734375 C-54.55297852 70.8112793 -54.55297852 70.8112793 -56 69 C-56.74894531 68.21753906 -57.49789062 67.43507813 -58.26953125 66.62890625 C-65.89188902 56.42073597 -70.3301021 46.00544275 -69 33 C-66.79922406 19.53642955 -60.94034165 8.78049673 -50.02734375 0.50390625 C-35.21466249 -9.42029571 -14.99050487 -9.92653394 0 0 Z M-50 18 C-55.79134605 26.41749342 -56.80780961 33.86140403 -56 44 C-55.17377826 47.71536657 -53.82204477 50.67545419 -52 54 C-51.35224609 55.18456787 -51.35224609 55.18456787 -50.69140625 56.39306641 C-48.33665083 59.7663806 -46.14090229 62.4190156 -42.0324707 63.53393555 C-37.09142161 64.28330707 -32.16016917 64.28081065 -27.17333984 64.17333984 C-24.50281515 64.1250509 -21.84588799 64.17292547 -19.17578125 64.23046875 C-10.19061523 64.39322428 -10.19061523 64.39322428 -2.08789062 61.08398438 C-0.00984578 58.80587345 1.52341823 56.70027136 3 54 C3.45503906 53.17064941 3.91007812 52.34129883 4.37890625 51.48681641 C8.02063554 44.22080513 8.12289633 36.13855206 6.41015625 28.30078125 C3.58821124 20.01700719 -2.4993091 12.48283435 -10.3125 8.4375 C-25.22658859 2.62353326 -39.40321459 6.10735523 -50 18 Z " fill="#089AE3" transform="translate(77,18)"/>
<path d="M0 0 C15.51 0 31.02 0 47 0 C47 3.96 47 7.92 47 12 C31.49 12 15.98 12 0 12 C0 8.04 0 4.08 0 0 Z " fill="#089BE4" transform="translate(29,99)"/>
<path d="M0 0 C0.66 0 1.32 0 2 0 C2.22171875 0.72445313 2.4434375 1.44890625 2.671875 2.1953125 C5.01857123 8.57220442 7.11001185 11.64850049 13.3125 14.6875 C15.1938112 15.49312784 17.08564394 16.27639173 19 17 C16.4167383 19.07121205 14.15689929 20.37253571 11.0625 21.5 C6.08334381 23.84532217 4.76849628 27.8186475 2.8125 32.734375 C2.544375 33.48203125 2.27625 34.2296875 2 35 C1.34 35 0.68 35 0 35 C-0.83819158 33.37750059 -1.6704116 31.75191503 -2.5 30.125 C-2.9640625 29.22007813 -3.428125 28.31515625 -3.90625 27.3828125 C-5 25 -5 25 -5 23 C-5.86625 22.731875 -6.7325 22.46375 -7.625 22.1875 C-10.91791964 21.02888013 -13.91127875 19.61790161 -17 18 C-14.72451086 15.39115894 -12.89371999 14.52635577 -9.625 13.5 C-5.20619086 11.68345856 -3.87131655 9.57199687 -1.9375 5.25 C-1.2616237 3.51138218 -0.60537333 1.76440467 0 0 Z " fill="#099AE3" transform="translate(110,0)"/>
<path d="M0 0 C8.25 0 16.5 0 25 0 C23 8 23 8 20.875 10.4375 C17.22168238 12.42299871 14.16024347 13.21209084 10 13 C5.8441931 11.51018243 3.12621506 9.91671195 1 6 C0.67 4.02 0.34 2.04 0 0 Z " fill="#099AE3" transform="translate(40,116)"/>
<path d="M0 0 C2.89932357 2.39509338 3.50168276 4.31245243 4 8 C6.31 8.66 8.62 9.32 11 10 C11 10.99 11 11.98 11 13 C10.0925 13.350625 9.185 13.70125 8.25 14.0625 C4.08142471 16.54761219 3.10847374 18.70195737 1 23 C0.34 23 -0.32 23 -1 23 C-1.495 21.39125 -1.495 21.39125 -2 19.75 C-3.73668287 15.57348949 -6.32645329 14.36392372 -10.35546875 12.62890625 C-11.16951172 12.31759766 -11.16951172 12.31759766 -12 12 C-8.34782609 9.13043478 -8.34782609 9.13043478 -6 8.25 C-2.81092063 6.2568254 -1.71383465 3.30525254 0 0 Z " fill="#099AE3" transform="translate(128,35)"/>
</svg>
