<?xml version="1.0" encoding="UTF-8"?>
<svg version="1.1" xmlns="http://www.w3.org/2000/svg" width="140" height="140">
<path d="M0 0 C13.54420778 11.3576037 20.34811451 25.87306439 22.19140625 43.3046875 C22.84707111 58.91374129 17.04108132 74.07192078 7.09765625 85.9296875 C-4.69164087 98.56847703 -19.78854255 105.0270255 -37 105.75 C-53.99373752 105.25018419 -69.63928606 98.32144727 -81.3203125 85.99609375 C-91.53761182 73.89461566 -96.94486182 59.43780188 -96.4765625 43.515625 C-94.5850436 26.28178617 -87.77266984 11.3741763 -74.375 0.0625 C-51.87825162 -16.91294276 -22.4518465 -16.90692078 0 0 Z M-81.125 13.3125 C-90.66540658 26.04012481 -92.85729749 40.81562933 -91.125 56.3125 C-88.48274198 71.01780762 -79.61711102 83.19737838 -67.78515625 92.06640625 C-54.96806463 100.35493066 -39.86254628 102.60118955 -24.92382812 99.91699219 C-10.36216296 96.47977794 2.08771569 87.08773037 10.1875 74.5625 C14.96311373 66.02226598 16.875 58.07286066 16.875 48.3125 C8.625 48.3125 0.375 48.3125 -8.125 48.3125 C-9.115 51.9425 -10.105 55.5725 -11.125 59.3125 C-14.99744737 66.26530323 -18.22747966 70.57862902 -26.078125 72.88671875 C-34.95054252 74.73231705 -42.22533009 72.3747937 -49.78125 67.65234375 C-55.04205828 63.97128968 -59.9466899 59.87806568 -64.75 55.625 C-65.27126465 55.17374756 -65.7925293 54.72249512 -66.32958984 54.25756836 C-68.49852953 52.27838369 -70.01950447 50.55119311 -71.2109375 47.85546875 C-71.04910081 43.0665741 -67.89059121 40.11531606 -64.71484375 36.78515625 C-55.06419349 28.01571411 -44.12820192 18.50117165 -30.359375 19.0234375 C-24.51178502 19.7799439 -19.20534063 22.01160042 -15.125 26.3125 C-11.50552626 32.23623173 -9.83556552 37.47023791 -8.125 44.3125 C0.125 44.3125 8.375 44.3125 16.875 44.3125 C16.875 28.90387109 10.96554112 17.60770415 0.5625 6.5625 C-10.82049102 -4.32140541 -24.07509363 -8.35815313 -39.59667969 -8.22827148 C-56.64566471 -7.59628882 -70.11450626 0.48453513 -81.125 13.3125 Z M-44.125 26.3125 C-45.135625 26.89 -46.14625 27.4675 -47.1875 28.0625 C-47.826875 28.475 -48.46625 28.8875 -49.125 29.3125 C-47.55421185 32.99483943 -45.26066869 35.56796115 -42.5625 38.5 C-41.75683594 39.38042969 -40.95117188 40.26085937 -40.12109375 41.16796875 C-37.93626716 43.91020594 -37.93626716 43.91020594 -34.80834961 44.42602539 C-33.30800171 44.41817017 -33.30800171 44.41817017 -31.77734375 44.41015625 C-30.69775391 44.40693359 -29.61816406 44.40371094 -28.50585938 44.40039062 C-27.36955078 44.39201172 -26.23324219 44.38363281 -25.0625 44.375 C-23.92232422 44.37048828 -22.78214844 44.36597656 -21.60742188 44.36132812 C-18.77989649 44.34949747 -15.9524736 44.3330141 -13.125 44.3125 C-13.58092009 42.71470562 -14.04306814 41.11868754 -14.5078125 39.5234375 C-14.76449707 38.63446777 -15.02118164 37.74549805 -15.28564453 36.82958984 C-17.10253969 31.38101826 -20.23831707 27.28700265 -25.125 24.3125 C-32.55477796 21.54914399 -37.38968226 22.37472565 -44.125 26.3125 Z M-60.25 38.75 C-61.16007812 39.57371094 -62.07015625 40.39742187 -63.0078125 41.24609375 C-64.05582031 42.26896484 -64.05582031 42.26896484 -65.125 43.3125 C-65.125 43.6425 -65.125 43.9725 -65.125 44.3125 C-58.855 44.3125 -52.585 44.3125 -46.125 44.3125 C-48.32648559 40.64335734 -50.31412837 37.48606474 -53.125 34.3125 C-56.38350411 34.3125 -57.90924888 36.61264748 -60.25 38.75 Z M-65.125 48.3125 C-62.89895493 51.19207397 -60.78451234 53.81510349 -57.91796875 56.06640625 C-57.33080078 56.52853516 -56.74363281 56.99066406 -56.13867188 57.46679688 C-55.53603516 57.93150391 -54.93339844 58.39621094 -54.3125 58.875 C-53.72146484 59.34357422 -53.13042969 59.81214844 -52.52148438 60.29492188 C-48.5686319 63.37702604 -44.52774458 65.91664028 -40.125 68.3125 C-38.1583358 66.09022959 -36.20172551 63.86032865 -34.25 61.625 C-33.69441406 60.99916016 -33.13882813 60.37332031 -32.56640625 59.72851562 C-29.68433739 56.41240025 -27.42022834 53.59986977 -26.125 49.3125 C-27.31410251 47.89523764 -27.31410251 47.89523764 -30.72680664 48.19897461 C-32.32959856 48.19913375 -33.9323956 48.20482937 -35.53515625 48.21484375 C-36.79820839 48.21696617 -36.79820839 48.21696617 -38.08677673 48.21913147 C-40.78705335 48.22474737 -43.48724828 48.23730252 -46.1875 48.25 C-48.01367068 48.25501295 -49.83984266 48.25957621 -51.66601562 48.26367188 C-56.15237542 48.27472196 -60.63867384 48.29199721 -65.125 48.3125 Z M-17.265625 50.3671875 C-20.51286896 53.68217971 -23.70248468 57.05110724 -26.875 60.4375 C-27.46410156 61.05753906 -28.05320312 61.67757812 -28.66015625 62.31640625 C-29.22089844 62.91582031 -29.78164062 63.51523438 -30.359375 64.1328125 C-31.12072754 64.94129639 -31.12072754 64.94129639 -31.89746094 65.76611328 C-33.34862428 67.41312087 -33.34862428 67.41312087 -34.125 70.3125 C-27.30922427 69.41609412 -22.64159593 67.62476568 -18.125 62.3125 C-15.04764167 57.74198556 -13.56463129 53.91618714 -14.125 48.3125 C-15.49928605 48.19708716 -15.49928605 48.19708716 -17.265625 50.3671875 Z " fill="#099AE3" transform="translate(107.125,23.6875)"/>
</svg>
