<?xml version="1.0" encoding="UTF-8"?>
<svg version="1.1" xmlns="http://www.w3.org/2000/svg" width="134" height="116">
<path d="M0 0 C1.89697632 -0.00717545 1.89697632 -0.00717545 3.83227539 -0.01449585 C6.50266699 -0.01789419 9.17075861 -0.01123393 11.84082031 0.01220703 C15.25082742 0.04069668 18.65886686 0.02428115 22.06880188 -0.00565529 C25.3376036 -0.02814151 28.60617252 -0.01236457 31.875 0 C33.09388916 -0.01012115 34.31277832 -0.02024231 35.56860352 -0.03067017 C44.9969178 0.0995207 44.9969178 0.0995207 48.70629883 3.04223633 C51.91302623 6.81037787 51.73067037 9.10971925 51.4609375 13.875 C50.4267179 19.38569251 47.5824858 22.97207711 43.75 26.9140625 C31.33218858 34.64070072 16.64413993 35.19186393 2.4609375 33.16796875 C-5.50933129 31.18101442 -12.42348374 27.6225869 -17.0625 20.6640625 C-18.94541813 17.47547121 -19.43947095 14.92256008 -19.5625 11.2265625 C-19.6140625 10.29972656 -19.665625 9.37289062 -19.71875 8.41796875 C-18.95884525 5.22908276 -17.73907846 3.74504017 -15.18054199 1.72477722 C-10.5142271 -0.61211171 -5.10257973 -0.04236973 0 0 Z " fill="#089AE3" transform="translate(54.0625,75.3359375)"/>
<path d="M0 0 C4.6081187 -0.07436755 9.21588514 -0.12870394 13.82446289 -0.16479492 C15.39093107 -0.17984622 16.95735736 -0.20029207 18.52368164 -0.22631836 C20.78021606 -0.26286433 23.03619153 -0.27976261 25.29296875 -0.29296875 C25.98899704 -0.30845261 26.68502533 -0.32393646 27.40214539 -0.33988953 C31.79070575 -0.34139552 34.49830724 0.33415581 38 3 C40.65683281 6.78873791 40.10014264 10.13014456 39.53125 14.5390625 C38.14600881 20.95598859 33.23660848 25.40313761 28 29 C24.77667925 30.66287201 21.61619955 32.24212727 17.9140625 31.6875 C15.16179814 30.69893158 13.26789741 28.82538084 11 27 C6.91215668 24.97782219 3.21455423 24.62885351 -1.3125 24.375 C-2.56675781 24.30023438 -3.82101563 24.22546875 -5.11328125 24.1484375 C-6.06589844 24.09945312 -7.01851563 24.05046875 -8 24 C-7.60167969 23.5875 -7.20335938 23.175 -6.79296875 22.75 C-2.92941749 18.53863512 -0.14397766 14.66611952 1 9 C0.91794992 6.61990162 0.91794992 6.61990162 0.56640625 4.2421875 C0.46400635 3.44409668 0.36160645 2.64600586 0.25610352 1.82373047 C0.12933228 0.92098389 0.12933228 0.92098389 0 0 Z " fill="#099BE3" transform="translate(92,47)"/>
<path d="M0 0 C0.72680969 0.0028299 1.45361938 0.00565979 2.20245361 0.00857544 C4.51534751 0.01973727 6.82784888 0.04483399 9.140625 0.0703125 C10.71223398 0.08034749 12.28384904 0.08947244 13.85546875 0.09765625 C17.70067122 0.11966346 21.54558164 0.15416535 25.390625 0.1953125 C25.30611084 0.79714355 25.22159668 1.39897461 25.13452148 2.01904297 C25.03212158 2.81713379 24.92972168 3.61522461 24.82421875 4.4375 C24.71907959 5.22495605 24.61394043 6.01241211 24.50561523 6.82373047 C24.22466156 12.61817629 26.94341031 16.90600464 30.578125 21.1953125 C31.50477069 22.20537884 32.43846707 23.20925898 33.390625 24.1953125 C32.4728125 24.22109375 31.555 24.246875 30.609375 24.2734375 C19.17472998 24.71292195 19.17472998 24.71292195 9.8515625 30.83203125 C8.390625 32.1953125 8.390625 32.1953125 5.703125 32.1328125 C-2.43237357 29.8303129 -7.71847898 26.18617772 -12.609375 19.1953125 C-14.48417856 15.11965258 -15.08485844 11.66485685 -14.609375 7.1953125 C-13.38496609 4.5016129 -12.42245506 2.75688692 -9.97558594 1.06689453 C-6.66268229 -0.15339705 -3.48045307 -0.05123753 0 0 Z " fill="#099BE3" transform="translate(22.609375,46.8046875)"/>
<path d="M0 0 C3.49372773 3.39930266 4.73551792 6.2511383 5.09375 11.015625 C4.9074012 14.96000786 3.30942339 17.67987288 0.56640625 20.4453125 C-4.7606538 25.09486616 -9.09976976 25.35154422 -15.91796875 25.27734375 C-21.85435139 24.74314455 -25.48543385 22.62815861 -29.5 18.3125 C-31.44286915 14.02199729 -31.80680037 10.63286396 -31 6 C-28.43442625 0.56098366 -25.26070408 -1.50808754 -20 -4 C-12.91030841 -6.42542081 -5.63276817 -4.71580591 0 0 Z " fill="#099AE3" transform="translate(57,15)"/>
<path d="M0 0 C3.61611517 3.14924584 4.5218655 6.31164278 5.1015625 10.94921875 C4.43087194 16.3147432 2.04860802 19.19975085 -1.8984375 22.76171875 C-7.20977734 26.43880018 -13.11156433 25.89499614 -19.3359375 25.44921875 C-24.64086396 23.713061 -27.09302978 20.80398055 -30.3359375 16.44921875 C-31.89538089 13.33033197 -31.61910025 10.90380425 -31.3359375 7.44921875 C-29.86903994 3.20758725 -27.74378085 0.39989584 -23.8984375 -1.92578125 C-15.53441908 -5.74094755 -7.63765975 -5.30984711 0 0 Z " fill="#099AE3" transform="translate(83.3359375,43.55078125)"/>
<path d="M0 0 C3.02745263 2.5015571 4.39920658 4.56794505 4.97265625 8.48046875 C5.19305015 12.46759475 4.8288167 15.01116781 3.1640625 18.6875 C-1.65824516 23.87148074 -6.27034406 25.60741546 -13.3359375 25.9375 C-20.27884851 25.70051062 -24.32225623 23.19425022 -29.2734375 18.5625 C-31.52452262 13.92791298 -31.86915406 9.97464968 -30.2734375 5.1875 C-27.20646713 0.73544624 -24.02365354 -1.92443863 -19.0234375 -4 C-11.70552877 -5.24032351 -6.12606876 -4.29557013 0 0 Z " fill="#099AE3" transform="translate(109.3359375,14.625)"/>
</svg>
