<svg width="76" height="53" viewBox="0 0 76 53" fill="none" xmlns="http://www.w3.org/2000/svg">
<path d="M30.623 39.6591V16.2926H41.9064L42.4141 18.7118L43.7807 25.7416L44.256 25.7075L43.0191 16.2926H52.1798V39.6591H40.8802L40.3941 37.3594L38.6818 28.1494H38.1903L39.6757 39.6591H30.623Z" fill="black"/>
<path d="M64.4357 40.2807C60.6223 40.2807 57.7407 39.3415 55.7935 37.4631C53.8491 35.5846 52.8768 32.8068 52.8768 29.1297V26.756C52.8768 23.0903 53.8491 20.3239 55.7935 18.4568C57.7407 16.5898 60.6223 15.6562 64.4357 15.6562C68.1545 15.6562 70.9888 16.5542 72.9374 18.3487C74.8886 20.1403 75.9094 22.8 75.9999 26.3291V27.4448L64.8948 27.4619V25.2248C64.8948 24.8947 64.7354 24.7296 64.4195 24.7296C64.0954 24.7296 63.9333 24.8947 63.9333 25.2248V30.6381C63.9333 30.9725 64.0954 31.139 64.4195 31.139C64.7354 31.139 64.8948 30.9725 64.8948 30.6381V28.4751H75.9999V29.5907C75.8986 33.1085 74.8724 35.771 72.9212 37.5769C70.9726 39.3799 68.1437 40.2807 64.4357 40.2807Z" fill="black"/>
<path d="M21.5065 53.0008V38.4857H28.1771V53.0008H21.5065Z" fill="black"/>
<mask id="mask0_7_4840" style="mask-type:luminance" maskUnits="userSpaceOnUse" x="4" y="0" width="41" height="50">
<path d="M4.64465 0H44.9926V49.3215H4.64465V0Z" fill="white"/>
</mask>
<g mask="url(#mask0_7_4840)">
<path d="M4.55298 -0.108132L24.7674 49.3215L44.9806 -0.108132L29.2587 -0.132324L24.7674 35.192L20.2749 -0.132324L4.55298 -0.108132Z" fill="black"/>
</g>
<mask id="mask1_7_4840" style="mask-type:luminance" maskUnits="userSpaceOnUse" x="54" y="22" width="9" height="12">
<path d="M54.6542 22.1975H62.4321V33.1265H54.6542V22.1975Z" fill="white"/>
</mask>
<g mask="url(#mask1_7_4840)">
<path fill-rule="evenodd" clip-rule="evenodd" d="M58.5864 22.1975C60.7659 22.1975 62.5389 24.066 62.5389 26.3386C62.5389 28.6354 59.2576 33.0539 58.5864 33.0539C57.9153 33.0539 54.657 28.6354 54.657 26.3386C54.657 24.066 56.43 22.1975 58.5864 22.1975ZM56.5326 26.868C56.6595 26.868 56.7635 26.9775 56.7635 27.1113C56.7635 27.2465 56.6595 27.3546 56.5326 27.3546C56.4043 27.3546 56.3003 27.2465 56.3003 27.1113C56.3003 26.9775 56.4043 26.868 56.5326 26.868ZM58.5986 27.0245C59.1023 27.0245 59.5114 27.1611 59.5114 27.3304C59.5114 27.4984 59.1023 27.635 58.5986 27.635C58.0936 27.635 57.6844 27.4984 57.6844 27.3304C57.6844 27.1611 58.0936 27.0245 58.5986 27.0245ZM56.6231 25.9657V26.7811C56.5934 26.7712 56.5637 26.7669 56.5326 26.7669C56.5015 26.7669 56.4705 26.7712 56.4421 26.7811V25.8875L56.6231 25.9657ZM59.7032 26.1621C59.7032 26.4852 59.7126 26.8253 59.7072 27.1511C59.7072 27.1668 59.6978 27.181 59.6829 27.1867C59.6681 27.1924 59.6532 27.1867 59.6424 27.1739C59.4858 26.9704 59.0442 26.8665 58.6013 26.8665C58.157 26.8665 57.7114 26.969 57.5534 27.1739C57.544 27.1867 57.5278 27.1924 57.5129 27.1867C57.4994 27.181 57.4886 27.1668 57.4886 27.1511C57.4846 26.8253 57.4927 26.4852 57.4927 26.1621C57.4927 25.8434 58.0477 25.6854 58.6013 25.6854C59.1536 25.6854 59.7032 25.8448 59.7032 26.1621ZM58.6742 24.4118L60.8631 25.6043C60.8901 25.6185 60.9063 25.6441 60.9063 25.674C60.905 25.7053 60.8874 25.7324 60.8604 25.7437L59.93 26.1465C59.8909 25.6996 59.2427 25.4762 58.5959 25.4776C57.9531 25.4791 57.3104 25.7025 57.2672 26.1479L56.3354 25.7437C56.3084 25.7324 56.2909 25.7053 56.2909 25.674C56.2895 25.6441 56.3071 25.6185 56.3327 25.6043L58.523 24.4118C58.5716 24.3847 58.6243 24.3847 58.6742 24.4118ZM58.5986 23.3217C60.1515 23.3217 61.4113 24.6494 61.4113 26.2874C61.4113 27.9239 60.1515 29.2516 58.5986 29.2516C57.0444 29.2516 55.7845 27.9239 55.7845 26.2874C55.7845 24.6494 57.0444 23.3217 58.5986 23.3217Z" fill="white"/>
</g>
<path d="M10.6514 40.6469C8.9338 40.6469 7.45923 40.5074 6.22773 40.2313C4.99893 39.9581 3.98348 39.5796 3.18138 39.0929C2.37793 38.6034 1.74463 38.0384 1.28011 37.3966C0.818301 36.7563 0.48882 36.0689 0.291672 35.3361C0.0972239 34.6046 0 33.8547 0 33.0876V32.2452H9.58736V33.1901C9.59816 33.2812 9.63057 33.3879 9.68458 33.5089C9.7413 33.627 9.87363 33.6853 10.0789 33.6853C10.2301 33.6853 10.3435 33.6327 10.4192 33.5259C10.4948 33.4164 10.5326 33.3039 10.5326 33.1901C10.5326 33.062 10.5056 32.9154 10.4516 32.7518C10.3976 32.5853 10.3057 32.4558 10.1761 32.3647C9.90604 32.1683 9.51984 31.9947 9.02022 31.8467C8.51925 31.6987 7.95886 31.5394 7.3404 31.3686C6.7206 31.195 6.07244 30.9858 5.39593 30.7425C4.72211 30.4963 4.0699 30.1932 3.44065 29.8317C2.81004 29.4674 2.2429 29.0177 1.73923 28.4827C1.2342 27.9447 0.833155 27.293 0.534732 26.5302C0.234958 25.7675 0.0864213 24.8667 0.0864213 23.8264V23.6329C0.140435 21.7659 0.546884 20.2745 1.30712 19.1588C2.06601 18.0432 3.15708 17.2377 4.58033 16.7397C6.00628 16.2387 7.73065 15.9883 9.7548 15.9883C12.1017 15.9883 14.0232 16.3099 15.518 16.9503C17.0115 17.5921 18.1174 18.4843 18.8344 19.6256C19.5501 20.764 19.9093 22.0718 19.9093 23.5475V24.168H10.7162V23.428C10.7162 23.3028 10.6744 23.1932 10.592 23.0978C10.5083 22.9996 10.3922 22.9498 10.2409 22.9498C10.1005 22.9498 9.983 23.0011 9.88983 23.1035C9.79936 23.206 9.7548 23.3198 9.7548 23.4451C9.7548 23.5475 9.79936 23.6827 9.88983 23.8492C9.983 24.0171 10.0951 24.1338 10.2247 24.2021C10.4975 24.3501 10.8837 24.4839 11.3806 24.6006C11.8802 24.7144 12.442 24.8453 13.0658 24.9933C13.6924 25.1413 14.3405 25.3377 15.0103 25.5796C15.6801 25.8187 16.3296 26.1346 16.9602 26.5245C17.5894 26.9116 18.1606 27.4097 18.6724 28.0159C19.1828 28.6235 19.5879 29.3706 19.8877 30.2586C20.1861 31.1466 20.336 32.2039 20.336 33.4292V33.6853C20.2995 34.8664 20.0349 35.8939 19.542 36.7705C19.0478 37.6471 18.3659 38.3728 17.4949 38.9449C16.6266 39.5184 15.6112 39.9453 14.4486 40.2257C13.2846 40.506 12.0193 40.6469 10.6514 40.6469Z" fill="black"/>
</svg>
